<svg width="20" height="20" viewBox="0 0 20 20" fill="none" xmlns="http://www.w3.org/2000/svg">
<path d="M9.99984 1.66675C14.6023 1.66675 18.3332 5.39758 18.3332 10.0001C18.3332 14.6026 14.6023 18.3334 9.99984 18.3334C5.39734 18.3334 1.6665 14.6026 1.6665 10.0001C1.6665 5.39758 5.39734 1.66675 9.99984 1.66675ZM10.3048 11.1384L7.414 16.1467C8.58732 16.6377 9.87598 16.7851 11.1298 16.5717C10.9084 15.0146 11.135 13.4265 11.7832 11.9934L10.3048 11.1384ZM13.2365 12.8309C12.8041 13.8545 12.6359 14.9703 12.7473 16.0759C13.7588 15.6173 14.6401 14.9139 15.3115 14.0292L13.2365 12.8309ZM7.38234 9.45175C6.46533 10.7297 5.20375 11.7205 3.74484 12.3084C4.18559 13.5011 4.95782 14.5431 5.97067 15.3117L8.8615 10.3051L7.38234 9.45175ZM16.6348 9.34341L16.4198 9.44341C15.4959 9.89981 14.6912 10.5655 14.0698 11.3876L16.1465 12.5867C16.5778 11.5632 16.7457 10.4478 16.6348 9.34258V9.34341ZM3.33317 10.0001C3.33317 10.2217 3.344 10.4417 3.36484 10.6576C4.37775 10.2017 5.25979 9.4985 5.92984 8.61258L3.85317 7.41425C3.50882 8.23279 3.332 9.11205 3.33317 10.0001ZM14.029 4.68841L11.1382 9.69508L12.6173 10.5492C13.5343 9.27055 14.7962 8.27917 16.2557 7.69092C15.8459 6.58445 15.1504 5.60628 14.2398 4.85592L14.029 4.68841ZM9.99984 3.33341C9.614 3.33341 9.2365 3.36675 8.869 3.42925C9.09087 4.98644 8.86423 6.5746 8.21567 8.00758L9.69484 8.86175L12.5857 3.85341C11.7671 3.50906 10.8879 3.33224 9.99984 3.33341ZM7.25234 3.92508L7.09317 3.99841C6.14775 4.45797 5.32385 5.13371 4.68817 5.97091L6.76317 7.16925C7.19544 6.14592 7.36364 5.03037 7.25234 3.92508Z" fill="#7141F0"/>
</svg>
