<svg width="20" height="20" viewBox="0 0 20 20" fill="none" xmlns="http://www.w3.org/2000/svg">
<path d="M5.83317 4.16659V1.66659C5.83317 1.44557 5.92097 1.23361 6.07725 1.07733C6.23353 0.921049 6.44549 0.833252 6.6665 0.833252H13.3332C13.5542 0.833252 13.7661 0.921049 13.9224 1.07733C14.0787 1.23361 14.1665 1.44557 14.1665 1.66659V4.16659H17.4998C17.7209 4.16659 17.9328 4.25438 18.0891 4.41066C18.2454 4.56694 18.3332 4.7789 18.3332 4.99992V16.6666C18.3332 16.8876 18.2454 17.0996 18.0891 17.2558C17.9328 17.4121 17.7209 17.4999 17.4998 17.4999H2.49984C2.27882 17.4999 2.06686 17.4121 1.91058 17.2558C1.7543 17.0996 1.6665 16.8876 1.6665 16.6666V4.99992C1.6665 4.7789 1.7543 4.56694 1.91058 4.41066C2.06686 4.25438 2.27882 4.16659 2.49984 4.16659H5.83317ZM12.4998 5.83325H7.49984V15.8333H12.4998V5.83325ZM5.83317 5.83325H3.33317V15.8333H5.83317V5.83325ZM14.1665 5.83325V15.8333H16.6665V5.83325H14.1665ZM7.49984 2.49992V4.16659H12.4998V2.49992H7.49984Z" fill="#7141F0"/>
</svg>
