<svg width="20" height="20" viewBox="0 0 20 20" fill="none" xmlns="http://www.w3.org/2000/svg">
<path d="M3.33317 15.0001H7.9165V16.0417C7.9165 16.6495 7.67506 17.2324 7.24529 17.6622C6.81552 18.092 6.23263 18.3334 5.62484 18.3334C5.01705 18.3334 4.43415 18.092 4.00438 17.6622C3.57461 17.2324 3.33317 16.6495 3.33317 16.0417V15.0001ZM6.71484 11.6667L6.75234 11.5567C7.3915 9.80173 7.49984 9.47507 7.49984 9.16673C7.49984 8.54173 7.33067 7.79757 7.05984 7.27257C6.85817 6.8809 6.7165 6.76673 6.6665 6.76673C5.59984 6.76673 4.58317 7.9034 4.58317 9.16673C4.58317 9.9659 4.64567 10.6442 4.77234 11.4651L4.804 11.6667H6.71484ZM6.6665 5.10007C8.33317 5.10007 9.1665 7.50007 9.1665 9.16673C9.1665 10.0001 8.74984 10.8334 8.33317 12.0834L7.9165 13.3334H3.33317C3.33317 12.5001 2.9165 11.2501 2.9165 9.16673C2.9165 7.0834 4.5815 5.10007 6.6665 5.10007ZM16.7115 11.7484L16.5307 12.7742C16.4251 13.3728 16.0861 13.905 15.5882 14.2537C15.0903 14.6023 14.4743 14.7389 13.8757 14.6334C13.2771 14.5279 12.7449 14.1889 12.3962 13.6909C12.0476 13.193 11.911 12.577 12.0165 11.9784L12.1982 10.9534L16.7115 11.7484ZM15.8365 8.21007C15.974 7.7934 16.0873 7.46423 16.089 7.46007C16.2573 6.91173 16.3898 6.37423 16.4932 5.78673C16.7123 4.5434 15.9082 3.24757 14.8582 3.06173C14.809 3.0534 14.6498 3.1409 14.3832 3.4909C14.0248 3.96173 13.7298 4.6659 13.6207 5.28007C13.5723 5.55507 13.5798 5.61757 13.8457 7.1659C13.8832 7.37923 13.914 7.5709 13.9423 7.7634L13.959 7.8784L15.8373 8.21007H15.8365ZM15.1482 1.4209C17.2015 1.78257 18.4965 4.02423 18.1348 6.0759C17.7732 8.1284 17.1457 9.28673 17.0015 10.1076L12.4873 9.31173L12.294 8.0084C12.1007 6.70507 11.8357 5.81173 11.9798 4.99173C12.269 3.35007 13.5065 1.13173 15.1482 1.4209Z" fill="#7141F0"/>
</svg>
