<svg width="20" height="20" viewBox="0 0 20 20" fill="none" xmlns="http://www.w3.org/2000/svg">
<path d="M16.6668 1.66675C16.8878 1.66675 17.0998 1.75455 17.2561 1.91083C17.4124 2.06711 17.5002 2.27907 17.5002 2.50008V6.66675C17.5002 6.88776 17.4124 7.09972 17.2561 7.256C17.0998 7.41228 16.8878 7.50008 16.6668 7.50008H12.5002V18.3334C12.5002 18.5544 12.4124 18.7664 12.2561 18.9227C12.0998 19.079 11.8878 19.1667 11.6668 19.1667H8.3335C8.11248 19.1667 7.90052 19.079 7.74424 18.9227C7.58796 18.7664 7.50016 18.5544 7.50016 18.3334V7.50008H2.91683C2.69582 7.50008 2.48385 7.41228 2.32757 7.256C2.17129 7.09972 2.0835 6.88776 2.0835 6.66675V4.68175C2.08358 4.52703 2.12673 4.37539 2.20812 4.24381C2.28951 4.11223 2.40593 4.00591 2.54433 3.93675L7.0835 1.66675H16.6668ZM12.5002 3.33341H7.47683L3.75016 5.19675V5.83341H9.16683V17.5001H10.8335V5.83341H12.5002V3.33341ZM15.8335 3.33341H14.1668V5.83341H15.8335V3.33341Z" fill="#7141F0"/>
</svg>
