<svg width="20" height="20" viewBox="0 0 20 20" fill="none" xmlns="http://www.w3.org/2000/svg">
<path d="M4.16683 15C4.38784 15 4.5998 14.9122 4.75609 14.7559C4.91237 14.5996 5.00016 14.3877 5.00016 14.1667C6.30945 14.1686 7.58098 13.7281 8.6085 12.9167L10.4168 12.9167C11.5277 12.9167 12.5252 12.4333 13.2118 11.6667L15.8335 11.6667C16.6212 11.6669 17.3929 11.4438 18.0589 11.0233C18.725 10.6028 19.2583 10.0021 19.5968 9.29083C17.626 6.69 14.4352 5 10.8335 5C8.5085 5 6.54183 5.5025 4.95016 6.38167C4.89187 6.22078 4.78536 6.0818 4.64518 5.98367C4.50499 5.88554 4.33795 5.83304 4.16683 5.83333L1.66683 5.83333C1.44581 5.83333 1.23385 5.92113 1.07757 6.07741C0.921293 6.23369 0.833495 6.44565 0.833495 6.66667L0.833496 14.1667C0.833496 14.3877 0.921293 14.5996 1.07757 14.7559C1.23385 14.9122 1.44582 15 1.66683 15L4.16683 15ZM5.001 12.5L5.00016 8.315L5.03766 8.28833C6.5335 7.23833 8.48183 6.66667 10.8335 6.66667C13.3368 6.66667 15.666 7.63 17.3627 9.275L17.4735 9.38583L17.3735 9.46917C16.98 9.77736 16.503 9.96026 16.0043 9.99417L15.8335 10L14.0743 10C14.1343 9.73167 14.1668 9.45333 14.1668 9.16667L14.1668 8.33333L6.66683 8.33333L6.66683 10L12.3252 10.0008L12.2968 10.0658C12.1371 10.3995 11.8915 10.6847 11.5851 10.8921C11.2787 11.0995 10.9227 11.2216 10.5535 11.2458L10.4168 11.25L7.97516 11.25C7.58792 11.6461 7.12539 11.9607 6.61476 12.1753C6.10414 12.39 5.55491 12.5004 5.001 12.5ZM3.3335 13.3333L2.50016 13.3333L2.50016 7.5L3.3335 7.5L3.3335 13.3333Z" fill="#7141F0"/>
</svg>
