<svg width="20" height="20" viewBox="0 0 20 20" fill="none" xmlns="http://www.w3.org/2000/svg">
<path d="M15.8335 17.5001H4.16683C3.94582 17.5001 3.73385 17.4123 3.57757 17.256C3.42129 17.0997 3.3335 16.8878 3.3335 16.6668V9.16676H0.833496L9.43933 1.34343C9.59275 1.20383 9.79273 1.12646 10.0002 1.12646C10.2076 1.12646 10.4076 1.20383 10.561 1.34343L19.1668 9.16676H16.6668V16.6668C16.6668 16.8878 16.579 17.0997 16.4228 17.256C16.2665 17.4123 16.0545 17.5001 15.8335 17.5001ZM10.8335 15.8334H15.0002V7.63093L10.0002 3.08593L5.00016 7.63093V15.8334H9.16683V10.8334H10.8335V15.8334Z" fill="#7141F0"/>
</svg>
