<svg width="20" height="20" viewBox="0 0 20 20" fill="none" xmlns="http://www.w3.org/2000/svg">
<path d="M2.5 2.49341C2.5 2.03675 2.87083 1.66675 3.3275 1.66675H16.6725C16.8914 1.66827 17.1008 1.75583 17.2557 1.91051C17.4105 2.06519 17.4983 2.27456 17.5 2.49341V17.5067C17.4998 17.7261 17.4125 17.9363 17.2573 18.0913C17.1022 18.2463 16.8918 18.3334 16.6725 18.3334H3.3275C3.10865 18.3319 2.89918 18.2443 2.74435 18.0897C2.58951 17.935 2.50175 17.7256 2.5 17.5067V2.49341ZM15.8333 9.16675V3.33341H4.16667V9.16675H15.8333ZM15.8333 10.8334H4.16667V16.6667H15.8333V10.8334ZM7.5 5.00008H12.5V6.66675H7.5V5.00008ZM7.5 12.5001H12.5V14.1667H7.5V12.5001Z" fill="#7141F0"/>
</svg>
