<svg width="20" height="20" viewBox="0 0 20 20" fill="none" xmlns="http://www.w3.org/2000/svg">
<path d="M10.8332 10.0001H13.3332L9.1665 15.8334V11.6667H6.6665L10.8332 5.83342V10.0001ZM9.1665 5.00008H5.83317V16.6667H14.1665V5.00008H10.8332V3.33341H9.1665V5.00008ZM7.49984 3.33341V2.50008C7.49984 2.27907 7.58764 2.06711 7.74392 1.91083C7.9002 1.75455 8.11216 1.66675 8.33317 1.66675H11.6665C11.8875 1.66675 12.0995 1.75455 12.2558 1.91083C12.412 2.06711 12.4998 2.27907 12.4998 2.50008V3.33341H14.9998C15.2209 3.33341 15.4328 3.42121 15.5891 3.57749C15.7454 3.73377 15.8332 3.94573 15.8332 4.16675V17.5001C15.8332 17.7211 15.7454 17.9331 15.5891 18.0893C15.4328 18.2456 15.2209 18.3334 14.9998 18.3334H4.99984C4.77882 18.3334 4.56686 18.2456 4.41058 18.0893C4.2543 17.9331 4.1665 17.7211 4.1665 17.5001V4.16675C4.1665 3.94573 4.2543 3.73377 4.41058 3.57749C4.56686 3.42121 4.77882 3.33341 4.99984 3.33341H7.49984Z" fill="#7141F0"/>
</svg>
