<svg width="20" height="20" viewBox="0 0 20 20" fill="none" xmlns="http://www.w3.org/2000/svg">
<path d="M14.5832 1.66675C15.3472 1.66681 16.0931 1.90025 16.7208 2.33584C17.3485 2.77143 17.8282 3.38837 18.0957 4.10408C18.3631 4.8198 18.4056 5.60013 18.2173 6.34064C18.0291 7.08114 17.6191 7.74648 17.0424 8.24758C17.3382 9.05342 17.4999 9.92508 17.4999 10.8334C17.4992 11.9292 17.2585 13.0115 16.7947 14.0042C16.3308 14.9969 15.6551 15.8759 14.815 16.5794C13.9749 17.2829 12.9909 17.7938 11.9321 18.0761C10.8734 18.3584 9.76561 18.4052 8.68679 18.2134C7.60797 18.0216 6.58429 17.5957 5.68777 16.9657C4.79124 16.3357 4.04364 15.5169 3.49757 14.5669C2.9515 13.6169 2.62022 12.5588 2.52703 11.4671C2.43384 10.3753 2.58102 9.27636 2.95819 8.24758C2.54993 7.8928 2.22325 7.4539 2.00056 6.961C1.77787 6.46809 1.66444 5.93284 1.66805 5.39198C1.67167 4.85112 1.79224 4.31743 2.02149 3.82755C2.25075 3.33766 2.58327 2.90317 2.99623 2.55387C3.4092 2.20458 3.89283 1.94875 4.41397 1.80394C4.9351 1.65913 5.48138 1.62876 6.01535 1.71492C6.54932 1.80109 7.05833 2.00174 7.50747 2.30311C7.9566 2.60449 8.33522 2.99946 8.61736 3.46092C9.53169 3.29031 10.4697 3.29031 11.384 3.46092C11.7186 2.9126 12.1887 2.45957 12.7489 2.14536C13.3092 1.83115 13.9408 1.66634 14.5832 1.66675ZM14.5832 3.33342C13.8974 3.33342 13.2707 3.66675 12.8849 4.21008L12.8057 4.33008L12.2074 5.31008L11.0782 5.09925C10.4549 4.98296 9.81696 4.96833 9.18903 5.05592L8.92569 5.09925L7.79569 5.31175L7.19569 4.33175C7.04238 4.08062 6.8376 3.86482 6.59486 3.69855C6.35212 3.53228 6.07691 3.41932 5.78736 3.36709C5.4978 3.31486 5.20047 3.32456 4.91493 3.39555C4.6294 3.46653 4.36213 3.59719 4.13074 3.77893C3.89935 3.96066 3.70908 4.18935 3.57245 4.44993C3.43583 4.71052 3.35595 4.99708 3.33807 5.29077C3.32019 5.58445 3.36473 5.87859 3.46874 6.15382C3.57275 6.42905 3.73388 6.67912 3.94153 6.88758L4.05069 6.99008L4.91819 7.74342L4.52236 8.82258C4.22931 9.62271 4.1151 10.4773 4.18779 11.3263C4.26047 12.1753 4.51827 12.9981 4.94306 13.7368C5.36784 14.4754 5.9493 15.1121 6.64654 15.6019C7.34378 16.0918 8.13987 16.4229 8.97882 16.572C9.81777 16.7212 10.6792 16.6847 11.5026 16.4652C12.3259 16.2457 13.0912 15.8485 13.7445 15.3015C14.3979 14.7545 14.9235 14.071 15.2843 13.2991C15.6452 12.5271 15.8325 11.6855 15.8332 10.8334C15.8332 10.2367 15.744 9.65342 15.5715 9.09758L15.4782 8.82258L15.0824 7.74342L15.949 6.99008C16.2697 6.71176 16.4976 6.34212 16.6024 5.93065C16.7071 5.51918 16.6836 5.08553 16.535 4.68778C16.3865 4.29003 16.1199 3.94717 15.7711 3.70511C15.4223 3.46306 15.0078 3.33337 14.5832 3.33342ZM8.33319 10.8334C8.33319 11.2754 8.50879 11.6994 8.82135 12.0119C9.13391 12.3245 9.55783 12.5001 9.99986 12.5001C10.4419 12.5001 10.8658 12.3245 11.1784 12.0119C11.4909 11.6994 11.6665 11.2754 11.6665 10.8334H13.3332C13.3332 11.7175 12.982 12.5653 12.3569 13.1904C11.7318 13.8156 10.8839 14.1667 9.99986 14.1667C9.1158 14.1667 8.26796 13.8156 7.64284 13.1904C7.01771 12.5653 6.66653 11.7175 6.66653 10.8334H8.33319Z" fill="#7141F0"/>
</svg>
