<svg width="20" height="20" viewBox="0 0 20 20" fill="none" xmlns="http://www.w3.org/2000/svg">
<path d="M12.9169 1.66675C13.3468 1.6667 13.7713 1.76168 14.1602 1.94489C14.5491 2.12809 14.8927 2.39499 15.1664 2.72649C15.44 3.05798 15.6371 3.44588 15.7433 3.86241C15.8496 4.27895 15.8625 4.71382 15.781 5.13592L15.7685 5.19092C16.4935 5.43275 17.1274 5.89024 17.5852 6.50216C18.0431 7.11408 18.3032 7.85124 18.3306 8.61501C18.3581 9.37878 18.1516 10.1327 17.7389 10.7759C17.3261 11.4192 16.7268 11.921 16.021 12.2142L15.116 17.6367C15.0837 17.8313 14.9834 18.0081 14.8329 18.1357C14.6825 18.2633 14.4916 18.3333 14.2944 18.3334H5.70604C5.50879 18.3333 5.31796 18.2633 5.16751 18.1357C5.01705 18.0081 4.91673 17.8313 4.88438 17.6367L4.02688 12.4951C3.45015 12.4624 2.90254 12.2309 2.47715 11.8401C2.05175 11.4493 1.77481 10.9233 1.69341 10.3514C1.61201 9.77951 1.73116 9.19707 2.03061 8.7031C2.33007 8.20912 2.79135 7.83409 3.33604 7.64175L3.33354 7.50008C3.33338 6.6563 3.54676 5.82619 3.9538 5.08708C4.36085 4.34796 4.94833 3.72388 5.66152 3.27296C6.37471 2.82204 7.19042 2.55894 8.03268 2.50816C8.87494 2.45739 9.71635 2.6206 10.4785 2.98258C10.7438 2.57807 11.1056 2.24597 11.5313 2.01624C11.957 1.78652 12.4332 1.66641 12.9169 1.66675ZM7.50021 12.5001H5.71688L6.41188 16.6667H7.50021V12.5001ZM10.8335 12.5001H9.16688V16.6667H10.8335V12.5001ZM14.2827 12.5001H12.5002V16.6667H13.5877L14.2827 12.5001ZM8.33354 4.16675C6.54854 4.16675 5.09104 5.57008 5.00438 7.30592L5.00021 7.47008L5.00271 7.61175C5.0086 7.93898 4.91802 8.2607 4.74226 8.53679C4.5665 8.81287 4.31335 9.0311 4.01438 9.16425L3.88938 9.21342C3.70434 9.2793 3.54849 9.40837 3.44927 9.57789C3.35005 9.7474 3.31383 9.94649 3.347 10.1401C3.38016 10.3337 3.48057 10.5094 3.63056 10.6362C3.78054 10.763 3.97046 10.8329 4.16688 10.8334H14.5835C14.8916 10.8334 15.1958 10.7651 15.4742 10.6334C15.7527 10.5017 15.9984 10.3099 16.1939 10.0719C16.3893 9.83376 16.5295 9.5553 16.6044 9.25652C16.6792 8.95774 16.6869 8.64607 16.6269 8.34396C16.5668 8.04185 16.4406 7.75681 16.2571 7.50937C16.0737 7.26193 15.8377 7.05824 15.566 6.91298C15.2944 6.76771 14.994 6.68448 14.6863 6.66929C14.3787 6.65409 14.0715 6.7073 13.7869 6.82508L13.641 6.89258C13.2565 7.09073 12.81 7.1316 12.3959 7.00658C11.9818 6.88155 11.6325 6.60041 11.4219 6.22258L11.3635 6.10842C11.0972 5.52877 10.6702 5.03772 10.1331 4.69355C9.596 4.34938 8.97144 4.16654 8.33354 4.16675ZM12.9169 3.33342C12.7009 3.33337 12.4885 3.38931 12.3005 3.49578C12.1126 3.60225 11.9554 3.75561 11.8444 3.94092C12.2747 4.36457 12.6248 4.86259 12.8777 5.41092C13.2477 5.22092 13.6527 5.09092 14.0827 5.03342C14.1558 4.84407 14.1816 4.63979 14.1581 4.43821C14.1345 4.23663 14.0622 4.04383 13.9474 3.87646C13.8326 3.70908 13.6788 3.57217 13.4993 3.47756C13.3197 3.38295 13.1198 3.33347 12.9169 3.33342Z" fill="#7141F0"/>
</svg>
