<svg width="20" height="20" viewBox="0 0 20 20" fill="none" xmlns="http://www.w3.org/2000/svg">
<path d="M15.8332 16.6666H4.1665V17.4999C4.1665 17.7209 4.07871 17.9329 3.92243 18.0892C3.76615 18.2455 3.55418 18.3333 3.33317 18.3333H2.49984C2.27882 18.3333 2.06686 18.2455 1.91058 18.0892C1.7543 17.9329 1.6665 17.7209 1.6665 17.4999V9.16659L3.73317 4.34325C3.86177 4.04325 4.07563 3.78762 4.34822 3.60807C4.6208 3.42852 4.9401 3.33296 5.2665 3.33325H14.7332C15.0593 3.33329 15.3782 3.429 15.6505 3.60853C15.9227 3.78806 16.1363 4.04351 16.2648 4.34325L18.3332 9.16659V17.4999C18.3332 17.7209 18.2454 17.9329 18.0891 18.0892C17.9328 18.2455 17.7209 18.3333 17.4998 18.3333H16.6665C16.4455 18.3333 16.2335 18.2455 16.0772 18.0892C15.921 17.9329 15.8332 17.7209 15.8332 17.4999V16.6666ZM16.6665 10.8333H3.33317V14.9999H16.6665V10.8333ZM3.47984 9.16659H16.5198L14.734 4.99992H5.2665L3.48067 9.16659H3.47984ZM5.4165 14.1666C5.08498 14.1666 4.76704 14.0349 4.53262 13.8005C4.2982 13.566 4.1665 13.2481 4.1665 12.9166C4.1665 12.5851 4.2982 12.2671 4.53262 12.0327C4.76704 11.7983 5.08498 11.6666 5.4165 11.6666C5.74802 11.6666 6.06597 11.7983 6.30039 12.0327C6.53481 12.2671 6.6665 12.5851 6.6665 12.9166C6.6665 13.2481 6.53481 13.566 6.30039 13.8005C6.06597 14.0349 5.74802 14.1666 5.4165 14.1666ZM14.5832 14.1666C14.2517 14.1666 13.9337 14.0349 13.6993 13.8005C13.4649 13.566 13.3332 13.2481 13.3332 12.9166C13.3332 12.5851 13.4649 12.2671 13.6993 12.0327C13.9337 11.7983 14.2517 11.6666 14.5832 11.6666C14.9147 11.6666 15.2326 11.7983 15.4671 12.0327C15.7015 12.2671 15.8332 12.5851 15.8332 12.9166C15.8332 13.2481 15.7015 13.566 15.4671 13.8005C15.2326 14.0349 14.9147 14.1666 14.5832 14.1666Z" fill="#7141F0"/>
</svg>
