<svg width="17" height="15" viewBox="0 0 17 15" fill="none" xmlns="http://www.w3.org/2000/svg">
<path d="M1.37516 0.375H15.6252C15.8351 0.375 16.0365 0.458407 16.185 0.606874C16.3334 0.75534 16.4168 0.956704 16.4168 1.16667V13.8333C16.4168 14.0433 16.3334 14.2447 16.185 14.3931C16.0365 14.5416 15.8351 14.625 15.6252 14.625H1.37516C1.1652 14.625 0.963836 14.5416 0.81537 14.3931C0.666904 14.2447 0.583496 14.0433 0.583496 13.8333V1.16667C0.583496 0.956704 0.666904 0.75534 0.81537 0.606874C0.963836 0.458407 1.1652 0.375 1.37516 0.375ZM14.8335 6.70833H2.16683V13.0417H14.8335V6.70833ZM14.8335 5.125V1.95833H2.16683V5.125H14.8335ZM10.0835 9.875H13.2502V11.4583H10.0835V9.875Z" fill="black"/>
</svg>
