<svg width="20" height="20" viewBox="0 0 20 20" fill="none" xmlns="http://www.w3.org/2000/svg">
<path d="M3.3332 13.3333H16.6665V4.16667H3.3332V13.3333ZM10.8332 15V16.6667H14.1665V18.3333H5.8332V16.6667H9.16654V15H2.4932C2.38378 14.9993 2.27555 14.9771 2.17474 14.9345C2.07392 14.892 1.98249 14.83 1.9057 14.752C1.8289 14.674 1.76824 14.5817 1.72721 14.4802C1.68617 14.3788 1.66555 14.2703 1.66654 14.1608V3.33917C1.66654 2.87583 2.0457 2.5 2.4932 2.5H17.5065C17.9632 2.5 18.3332 2.87417 18.3332 3.33917V14.1608C18.3332 14.6242 17.954 15 17.5065 15H10.8332Z" fill="#7141F0"/>
</svg>
