<svg width="20" height="20" viewBox="0 0 20 20" fill="none" xmlns="http://www.w3.org/2000/svg">
<path d="M15.3031 9.14992C16.6048 10.4508 16.6048 12.5616 15.3031 13.8633L10.589 18.5774C10.264 18.9024 9.73563 18.9024 9.41063 18.5774L4.69646 13.8633C3.3948 12.5616 3.3948 10.4508 4.69646 9.14909C5.99813 7.84742 8.10897 7.84742 9.41063 9.14909L9.99896 9.73825L10.589 9.14909C11.8906 7.84742 14.0015 7.84742 15.3031 9.14909V9.14992ZM5.8748 10.3266C5.2248 10.9774 5.2248 12.0333 5.8748 12.6841L9.9998 16.8091L14.1248 12.6841C14.7748 12.0333 14.7748 10.9774 14.1248 10.3266C13.474 9.67659 12.4181 9.67659 11.7665 10.3283L9.99813 12.0933L8.23147 10.3266C7.58147 9.67659 6.52563 9.67659 5.8748 10.3266ZM9.9998 0.833252C11.8415 0.833252 13.3331 2.32492 13.3331 4.16659C13.3331 6.00825 11.8415 7.49992 9.9998 7.49992C8.15813 7.49992 6.66646 6.00825 6.66646 4.16659C6.66646 2.32492 8.15813 0.833252 9.9998 0.833252ZM9.9998 2.49992C9.07897 2.49992 8.33313 3.24575 8.33313 4.16659C8.33313 5.08742 9.07897 5.83325 9.9998 5.83325C10.9206 5.83325 11.6665 5.08742 11.6665 4.16659C11.6665 3.24575 10.9206 2.49992 9.9998 2.49992Z" fill="#7141F0"/>
</svg>
