<svg width="20" height="20" viewBox="0 0 20 20" fill="none" xmlns="http://www.w3.org/2000/svg">
<path d="M9.99984 18.3334C5.39734 18.3334 1.6665 14.6026 1.6665 10.0001C1.6665 5.39758 5.39734 1.66675 9.99984 1.66675C14.6023 1.66675 18.3332 5.39758 18.3332 10.0001C18.3332 14.6026 14.6023 18.3334 9.99984 18.3334ZM8.0915 16.3892C7.26935 14.6453 6.79306 12.7586 6.689 10.8334H3.38484C3.54699 12.1158 4.07811 13.3236 4.91364 14.3098C5.74918 15.2961 6.85318 16.0185 8.0915 16.3892ZM8.35817 10.8334C8.484 12.8659 9.06484 14.7751 9.99984 16.4601C10.9601 14.7305 11.521 12.808 11.6415 10.8334H8.35817ZM16.6148 10.8334H13.3107C13.2066 12.7586 12.7303 14.6453 11.9082 16.3892C13.1465 16.0185 14.2505 15.2961 15.086 14.3098C15.9216 13.3236 16.4527 12.1158 16.6148 10.8334ZM3.38484 9.16675H6.689C6.79306 7.24157 7.26935 5.35482 8.0915 3.61091C6.85318 3.98165 5.74918 4.70404 4.91364 5.69033C4.07811 6.67661 3.54699 7.88433 3.38484 9.16675ZM8.359 9.16675H11.6407C11.5205 7.19225 10.9598 5.26969 9.99984 3.54008C9.03957 5.26962 8.47863 7.19218 8.35817 9.16675H8.359ZM11.9082 3.61091C12.7303 5.35482 13.2066 7.24157 13.3107 9.16675H16.6148C16.4527 7.88433 15.9216 6.67661 15.086 5.69033C14.2505 4.70404 13.1465 3.98165 11.9082 3.61091Z" fill="#7141F0"/>
</svg>
