<svg width="15" height="14" viewBox="0 0 15 14" fill="none" xmlns="http://www.w3.org/2000/svg">
<path d="M10.425 1C12.3997 1 14 2.62162 14 4.89189C14 9.43243 9.125 12.027 7.5 13C5.875 12.027 1 9.43243 1 4.89189C1 2.62162 2.625 1 4.575 1C5.784 1 6.85 1.64865 7.5 2.2973C8.15 1.64865 9.216 1 10.425 1ZM8.1071 11.1215C8.67975 10.7609 9.1965 10.4022 9.6801 10.0182C11.6177 8.48086 12.7 6.80086 12.7 4.89189C12.7 3.36108 11.7009 2.2973 10.425 2.2973C9.7256 2.2973 8.969 2.66703 8.4191 3.21449L7.5 4.13168L6.5809 3.21449C6.031 2.66703 5.2744 2.2973 4.575 2.2973C3.314 2.2973 2.3 3.37146 2.3 4.89189C2.3 6.80151 3.3829 8.48086 5.31925 10.0182C5.8035 10.4022 6.32025 10.7609 6.8929 11.1209C7.08725 11.2435 7.27965 11.3609 7.5 11.4919C7.72035 11.3609 7.91275 11.2435 8.1071 11.1215Z" fill="#BDBDBD"/>
</svg>
