<svg width="20" height="20" viewBox="0 0 20 20" fill="none" xmlns="http://www.w3.org/2000/svg">
<path d="M14.9998 14.1667V18.3334H13.3332V14.1667C13.3332 10.4576 15.5365 7.26258 18.7057 5.82008L19.3957 7.33675C18.0846 7.93306 16.9729 8.8942 16.1934 10.1053C15.4139 11.3165 14.9996 12.7264 14.9998 14.1667ZM6.6665 14.1667V18.3334H4.99984V14.1667C4.99996 12.7266 4.58553 11.3168 3.80603 10.1058C3.02654 8.89485 1.91494 7.93384 0.604004 7.33758L1.294 5.82008C2.89624 6.54882 4.25484 7.72338 5.20752 9.20346C6.1602 10.6835 6.6667 12.4066 6.6665 14.1667ZM9.99984 10.0001C8.89477 10.0001 7.83496 9.56109 7.05356 8.77969C6.27216 7.99829 5.83317 6.93848 5.83317 5.83342C5.83317 4.72835 6.27216 3.66854 7.05356 2.88714C7.83496 2.10573 8.89477 1.66675 9.99984 1.66675C11.1049 1.66675 12.1647 2.10573 12.9461 2.88714C13.7275 3.66854 14.1665 4.72835 14.1665 5.83342C14.1665 6.93848 13.7275 7.99829 12.9461 8.77969C12.1647 9.56109 11.1049 10.0001 9.99984 10.0001ZM9.99984 8.33342C10.3281 8.33342 10.6532 8.26875 10.9565 8.14311C11.2599 8.01748 11.5355 7.83333 11.7676 7.60118C11.9998 7.36904 12.1839 7.09344 12.3095 6.79012C12.4352 6.48681 12.4998 6.16172 12.4998 5.83342C12.4998 5.50511 12.4352 5.18002 12.3095 4.87671C12.1839 4.57339 11.9998 4.29779 11.7676 4.06565C11.5355 3.8335 11.2599 3.64935 10.9565 3.52372C10.6532 3.39808 10.3281 3.33341 9.99984 3.33341C9.3368 3.33341 8.70091 3.59681 8.23207 4.06565C7.76323 4.53449 7.49984 5.17037 7.49984 5.83342C7.49984 6.49646 7.76323 7.13234 8.23207 7.60118C8.70091 8.07002 9.3368 8.33342 9.99984 8.33342Z" fill="#7141F0"/>
</svg>
