<svg width="20" height="20" viewBox="0 0 20 20" fill="none" xmlns="http://www.w3.org/2000/svg">
<path d="M5.83317 7.50008C6.3857 7.50008 6.91561 7.28059 7.30631 6.88989C7.69701 6.49919 7.9165 5.96928 7.9165 5.41675C7.9165 4.86421 7.69701 4.33431 7.30631 3.94361C6.91561 3.55291 6.3857 3.33341 5.83317 3.33341C5.28064 3.33341 4.75073 3.55291 4.36003 3.94361C3.96933 4.33431 3.74984 4.86421 3.74984 5.41675C3.74984 5.96928 3.96933 6.49919 4.36003 6.88989C4.75073 7.28059 5.28064 7.50008 5.83317 7.50008ZM5.83317 9.16675C5.34071 9.16675 4.85308 9.06975 4.39811 8.8813C3.94314 8.69284 3.52974 8.41662 3.18152 8.0684C2.8333 7.72018 2.55708 7.30678 2.36862 6.85181C2.18017 6.39684 2.08317 5.9092 2.08317 5.41675C2.08317 4.92429 2.18017 4.43666 2.36862 3.98169C2.55708 3.52671 2.8333 3.11332 3.18152 2.7651C3.52974 2.41688 3.94314 2.14065 4.39811 1.9522C4.85308 1.76374 5.34071 1.66675 5.83317 1.66675C6.82773 1.66675 7.78156 2.06184 8.48482 2.7651C9.18808 3.46836 9.58317 4.42219 9.58317 5.41675C9.58317 6.41131 9.18808 7.36514 8.48482 8.0684C7.78156 8.77166 6.82773 9.16675 5.83317 9.16675ZM14.5832 10.8334C15.0252 10.8334 15.4491 10.6578 15.7617 10.3453C16.0742 10.0327 16.2498 9.60878 16.2498 9.16675C16.2498 8.72472 16.0742 8.3008 15.7617 7.98824C15.4491 7.67568 15.0252 7.50008 14.5832 7.50008C14.1411 7.50008 13.7172 7.67568 13.4047 7.98824C13.0921 8.3008 12.9165 8.72472 12.9165 9.16675C12.9165 9.60878 13.0921 10.0327 13.4047 10.3453C13.7172 10.6578 14.1411 10.8334 14.5832 10.8334ZM14.5832 12.5001C13.6991 12.5001 12.8513 12.1489 12.2261 11.5238C11.601 10.8986 11.2498 10.0508 11.2498 9.16675C11.2498 8.28269 11.601 7.43485 12.2261 6.80973C12.8513 6.1846 13.6991 5.83341 14.5832 5.83341C15.4672 5.83341 16.3151 6.1846 16.9402 6.80973C17.5653 7.43485 17.9165 8.28269 17.9165 9.16675C17.9165 10.0508 17.5653 10.8986 16.9402 11.5238C16.3151 12.1489 15.4672 12.5001 14.5832 12.5001ZM16.6665 17.5001V17.0834C16.6665 16.5309 16.447 16.001 16.0563 15.6103C15.6656 15.2196 15.1357 15.0001 14.5832 15.0001C14.0306 15.0001 13.5007 15.2196 13.11 15.6103C12.7193 16.001 12.4998 16.5309 12.4998 17.0834V17.5001H10.8332V17.0834C10.8332 16.591 10.9302 16.1033 11.1186 15.6484C11.3071 15.1934 11.5833 14.78 11.9315 14.4318C12.2797 14.0835 12.6931 13.8073 13.1481 13.6189C13.6031 13.4304 14.0907 13.3334 14.5832 13.3334C15.0756 13.3334 15.5633 13.4304 16.0182 13.6189C16.4732 13.8073 16.8866 14.0835 17.2348 14.4318C17.583 14.78 17.8593 15.1934 18.0477 15.6484C18.2362 16.1033 18.3332 16.591 18.3332 17.0834V17.5001H16.6665ZM8.33317 17.5001V14.1667C8.33317 13.5037 8.06978 12.8678 7.60094 12.399C7.1321 11.9301 6.49621 11.6667 5.83317 11.6667C5.17013 11.6667 4.53424 11.9301 4.0654 12.399C3.59656 12.8678 3.33317 13.5037 3.33317 14.1667V17.5001H1.6665V14.1667C1.6665 13.0617 2.10549 12.0019 2.88689 11.2205C3.66829 10.4391 4.7281 10.0001 5.83317 10.0001C6.93824 10.0001 7.99805 10.4391 8.77945 11.2205C9.56085 12.0019 9.99984 13.0617 9.99984 14.1667V17.5001H8.33317Z" fill="#7141F0"/>
</svg>
