<svg width="20" height="20" viewBox="0 0 20 20" fill="none" xmlns="http://www.w3.org/2000/svg">
<path d="M5.87497 11.7675L4.1083 13.5359L6.46497 15.8925L15.8925 6.4642L13.5358 4.10837L11.7666 5.87504L12.9458 7.05337L11.7666 8.23337L10.5883 7.0542L9.40996 8.23337L10.5883 9.4117L9.40996 10.59L8.23163 9.4117L7.05247 10.59L8.23163 11.7684L7.05247 12.9475L5.87497 11.7667V11.7675ZM14.125 2.34004L17.66 5.87504C17.8162 6.03131 17.904 6.24323 17.904 6.4642C17.904 6.68517 17.8162 6.8971 17.66 7.05337L7.0533 17.66C6.89703 17.8163 6.6851 17.904 6.46413 17.904C6.24316 17.904 6.03124 17.8163 5.87497 17.66L2.33997 14.125C2.18374 13.9688 2.09598 13.7568 2.09598 13.5359C2.09598 13.3149 2.18374 13.103 2.33997 12.9467L12.9466 2.34004C13.1029 2.18381 13.3148 2.09605 13.5358 2.09605C13.7568 2.09605 13.9687 2.18381 14.125 2.34004ZM11.7666 15.3025L12.9458 14.1242L14.8141 15.9934H15.9925V14.815L14.1241 12.9459L15.3025 11.7675L17.5 13.9642V17.5H13.965L11.7675 15.3025H11.7666ZM4.69663 8.2317L2.33913 5.87504C2.26165 5.79764 2.20019 5.70574 2.15825 5.60457C2.11631 5.50341 2.09473 5.39497 2.09473 5.28545C2.09473 5.17594 2.11631 5.0675 2.15825 4.96634C2.20019 4.86517 2.26165 4.77326 2.33913 4.69587L4.69663 2.3392C4.85291 2.18298 5.06483 2.09521 5.2858 2.09521C5.50677 2.09521 5.71869 2.18298 5.87497 2.3392L8.2333 4.69587L7.0533 5.87504L5.2858 4.1067L4.10747 5.28587L5.87497 7.05254L4.69663 8.2317Z" fill="#7141F0"/>
</svg>
