<svg width="20" height="20" viewBox="0 0 20 20" fill="none" xmlns="http://www.w3.org/2000/svg">
<path d="M4.99984 1.66675C7.2415 1.66675 9.1865 2.93091 10.164 4.78425C11.1448 3.40258 12.7582 2.50008 14.5832 2.50008H17.4998V4.58341C17.4998 7.57508 15.0748 10.0001 12.0832 10.0001H10.8332V10.8334H14.9998V16.6667C14.9998 17.5876 14.254 18.3334 13.3332 18.3334H6.6665C5.74567 18.3334 4.99984 17.5876 4.99984 16.6667V10.8334H9.1665V9.16675H7.49984C4.27817 9.16675 1.6665 6.55508 1.6665 3.33341V1.66675H4.99984ZM13.3332 12.5001H6.6665V16.6667H13.3332V12.5001ZM15.8332 4.16675H14.5832C12.5123 4.16675 10.8332 5.84591 10.8332 7.91675V8.33342H12.0832C14.154 8.33342 15.8332 6.65425 15.8332 4.58341V4.16675ZM4.99984 3.33341H3.33317C3.33317 5.63425 5.199 7.50008 7.49984 7.50008H9.1665C9.1665 5.19925 7.30067 3.33341 4.99984 3.33341Z" fill="#7141F0"/>
</svg>
