<svg width="20" height="20" viewBox="0 0 20 20" fill="none" xmlns="http://www.w3.org/2000/svg">
<path d="M7.8717 6.69336L10 8.8217L15.6067 3.21503C15.9192 2.90258 16.3431 2.72705 16.785 2.72705C17.227 2.72705 17.6508 2.90258 17.9634 3.21503L7.8717 13.3067C8.28377 14.0056 8.42681 14.8308 8.274 15.6276C8.12119 16.4244 7.68302 17.1381 7.04162 17.6349C6.40023 18.1318 5.59964 18.3776 4.78993 18.3264C3.98023 18.2752 3.217 17.9304 2.64331 17.3568C2.06962 16.7831 1.72485 16.0198 1.67364 15.2101C1.62243 14.4004 1.86829 13.5998 2.36514 12.9584C2.86198 12.317 3.5757 11.8789 4.3725 11.7261C5.1693 11.5732 5.99448 11.7163 6.69336 12.1284L8.8217 10L6.69336 7.8717C5.99448 8.28378 5.1693 8.42682 4.3725 8.274C3.5757 8.12119 2.86198 7.68302 2.36514 7.04162C1.86829 6.40023 1.62243 5.59964 1.67364 4.78993C1.72485 3.98023 2.06962 3.217 2.64331 2.64331C3.217 2.06962 3.98023 1.72485 4.78993 1.67364C5.59964 1.62243 6.40023 1.86829 7.04162 2.36514C7.68302 2.86198 8.12119 3.5757 8.274 4.3725C8.42681 5.1693 8.28377 5.99448 7.8717 6.69336ZM12.355 11.1767L17.9634 16.785C17.6508 17.0975 17.227 17.273 16.785 17.273C16.3431 17.273 15.9192 17.0975 15.6067 16.785L11.1759 12.355L12.355 11.1759V11.1767ZM6.17836 13.8217C6.02462 13.6625 5.84071 13.5355 5.63737 13.4482C5.43403 13.3608 5.21533 13.3149 4.99403 13.3129C4.77273 13.311 4.55327 13.3532 4.34844 13.437C4.14361 13.5208 3.95753 13.6446 3.80104 13.801C3.64455 13.9575 3.5208 14.1436 3.43699 14.3484C3.35319 14.5533 3.31102 14.7727 3.31295 14.994C3.31487 15.2153 3.36085 15.434 3.44819 15.6374C3.53554 15.8407 3.66251 16.0246 3.8217 16.1784C4.13603 16.482 4.55704 16.65 4.99403 16.6462C5.43103 16.6424 5.84905 16.4671 6.15806 16.1581C6.46707 15.849 6.64236 15.431 6.64615 14.994C6.64995 14.557 6.48196 14.136 6.17836 13.8217ZM6.17836 6.17836C6.33755 6.02462 6.46452 5.84071 6.55187 5.63737C6.63921 5.43403 6.68519 5.21533 6.68711 4.99403C6.68904 4.77273 6.64687 4.55327 6.56307 4.34844C6.47926 4.14361 6.35551 3.95753 6.19902 3.80104C6.04253 3.64455 5.85645 3.5208 5.65162 3.43699C5.44679 3.35319 5.22733 3.31102 5.00603 3.31295C4.78473 3.31487 4.56603 3.36085 4.36269 3.44819C4.15935 3.53554 3.97544 3.66251 3.8217 3.8217C3.5181 4.13603 3.35011 4.55704 3.35391 4.99403C3.3577 5.43103 3.53299 5.84905 3.842 6.15806C4.15101 6.46707 4.56903 6.64236 5.00603 6.64615C5.44302 6.64995 5.86403 6.48196 6.17836 6.17836Z" fill="#7141F0"/>
</svg>
