<svg width="18" height="19" viewBox="0 0 18 19" fill="none" xmlns="http://www.w3.org/2000/svg">
<path d="M15.75 9.21979V16.625C15.75 16.835 15.671 17.0364 15.5303 17.1848C15.3897 17.3333 15.1989 17.4167 15 17.4167H3C2.80109 17.4167 2.61033 17.3333 2.46967 17.1848C2.32902 17.0364 2.25 16.835 2.25 16.625V9.21979C1.76574 8.64184 1.49892 7.89661 1.5 7.12504V2.37504C1.5 2.16508 1.57902 1.96371 1.71967 1.81525C1.86033 1.66678 2.05109 1.58337 2.25 1.58337H15.75C15.9489 1.58337 16.1397 1.66678 16.2803 1.81525C16.421 1.96371 16.5 2.16508 16.5 2.37504V7.12504C16.5 7.92779 16.2165 8.66087 15.75 9.21979ZM14.25 10.192C13.7136 10.3374 13.1496 10.3236 12.6202 10.152C12.0908 9.98049 11.6167 9.65787 11.25 9.21979C10.9688 9.55711 10.6226 9.82721 10.2346 10.0121C9.84659 10.1969 9.42569 10.2922 9 10.2917C8.57431 10.2922 8.15342 10.1969 7.76541 10.0121C7.37741 9.82721 7.03124 9.55711 6.75 9.21979C6.38424 9.65912 5.9101 9.98262 5.38042 10.1543C4.85073 10.3259 4.2863 10.339 3.75 10.192V15.8334H14.25V10.192ZM10.5 7.12504C10.5 6.91508 10.579 6.71371 10.7197 6.56525C10.8603 6.41678 11.0511 6.33337 11.25 6.33337C11.4489 6.33337 11.6397 6.41678 11.7803 6.56525C11.921 6.71371 12 6.91508 12 7.12504C12 7.54497 12.158 7.94769 12.4393 8.24463C12.7206 8.54156 13.1022 8.70837 13.5 8.70837C13.8978 8.70837 14.2794 8.54156 14.5607 8.24463C14.842 7.94769 15 7.54497 15 7.12504V3.16671H3V7.12504C3 7.54497 3.15804 7.94769 3.43934 8.24463C3.72065 8.54156 4.10218 8.70837 4.5 8.70837C4.89783 8.70837 5.27936 8.54156 5.56066 8.24463C5.84197 7.94769 6 7.54497 6 7.12504C6 6.91508 6.07902 6.71371 6.21967 6.56525C6.36033 6.41678 6.55109 6.33337 6.75 6.33337C6.94892 6.33337 7.13968 6.41678 7.28033 6.56525C7.42099 6.71371 7.5 6.91508 7.5 7.12504C7.5 7.54497 7.65804 7.94769 7.93934 8.24463C8.22065 8.54156 8.60218 8.70837 9 8.70837C9.39783 8.70837 9.77936 8.54156 10.0607 8.24463C10.342 7.94769 10.5 7.54497 10.5 7.12504Z" fill="#181818"/>
</svg>
