<svg width="20" height="20" viewBox="0 0 20 20" fill="none" xmlns="http://www.w3.org/2000/svg">
<path d="M10.8333 16.6667H15.8333V13.3333H12.5V11.6667H15.8333V5H14.1667V9.16667L10.8333 7.83333V16.6667ZM9.16667 16.6667V7.83333L5.83333 9.16667V5H4.16667V16.6667H9.16667ZM5.83333 3.33333V2.5H14.1667V3.33333H16.6667C16.8877 3.33333 17.0996 3.42113 17.2559 3.57741C17.4122 3.73369 17.5 3.94565 17.5 4.16667V17.5C17.5 17.721 17.4122 17.933 17.2559 18.0893C17.0996 18.2455 16.8877 18.3333 16.6667 18.3333H3.33333C3.11232 18.3333 2.90036 18.2455 2.74408 18.0893C2.5878 17.933 2.5 17.721 2.5 17.5V4.16667C2.5 3.94565 2.5878 3.73369 2.74408 3.57741C2.90036 3.42113 3.11232 3.33333 3.33333 3.33333H5.83333ZM10 6.66667L12.9167 4.16667H7.08333L10 6.66667Z" fill="#7141F0"/>
</svg>
