<svg width="15" height="14" viewBox="0 0 15 14" fill="none" xmlns="http://www.w3.org/2000/svg">
<path d="M3.72217 1.16663L1.97217 3.49996V11.6666C1.97217 11.976 2.09508 12.2728 2.31388 12.4916C2.53267 12.7104 2.82942 12.8333 3.13883 12.8333H11.3055C11.6149 12.8333 11.9117 12.7104 12.1305 12.4916C12.3493 12.2728 12.4722 11.976 12.4722 11.6666V3.49996L10.7222 1.16663H3.72217Z" stroke="#BDBDBD" stroke-width="1.5" stroke-linecap="round" stroke-linejoin="round"/>
<path d="M1.97217 3.5H12.4722" stroke="#BDBDBD" stroke-width="1.5" stroke-linecap="round" stroke-linejoin="round"/>
<path d="M9.55534 5.83337C9.55534 6.45221 9.30951 7.04571 8.87192 7.48329C8.43434 7.92087 7.84084 8.16671 7.22201 8.16671C6.60317 8.16671 6.00967 7.92087 5.57209 7.48329C5.1345 7.04571 4.88867 6.45221 4.88867 5.83337" stroke="#BDBDBD" stroke-width="1.5" stroke-linecap="round" stroke-linejoin="round"/>
</svg>
