<svg width="20" height="20" viewBox="0 0 20 20" fill="none" xmlns="http://www.w3.org/2000/svg">
<path d="M5.83317 3.33341V16.6667H14.1665V3.33341H5.83317ZM4.99984 1.66675H14.9998C15.2209 1.66675 15.4328 1.75455 15.5891 1.91083C15.7454 2.06711 15.8332 2.27907 15.8332 2.50008V17.5001C15.8332 17.7211 15.7454 17.9331 15.5891 18.0893C15.4328 18.2456 15.2209 18.3334 14.9998 18.3334H4.99984C4.77882 18.3334 4.56686 18.2456 4.41058 18.0893C4.2543 17.9331 4.1665 17.7211 4.1665 17.5001V2.50008C4.1665 2.27907 4.2543 2.06711 4.41058 1.91083C4.56686 1.75455 4.77882 1.66675 4.99984 1.66675ZM9.99984 14.1667C10.2209 14.1667 10.4328 14.2545 10.5891 14.4108C10.7454 14.5671 10.8332 14.7791 10.8332 15.0001C10.8332 15.2211 10.7454 15.4331 10.5891 15.5893C10.4328 15.7456 10.2209 15.8334 9.99984 15.8334C9.77882 15.8334 9.56686 15.7456 9.41058 15.5893C9.2543 15.4331 9.1665 15.2211 9.1665 15.0001C9.1665 14.7791 9.2543 14.5671 9.41058 14.4108C9.56686 14.2545 9.77882 14.1667 9.99984 14.1667Z" fill="#7141F0"/>
</svg>
