<svg width="20" height="20" viewBox="0 0 20 20" fill="none" xmlns="http://www.w3.org/2000/svg">
<path d="M12.0959 4.16666L14.2676 1.99416C14.345 1.91668 14.4369 1.85522 14.538 1.81328C14.6392 1.77134 14.7476 1.74976 14.8572 1.74976C14.9667 1.74976 15.0751 1.77134 15.1763 1.81328C15.2774 1.85522 15.3693 1.91668 15.4467 1.99416L18.9817 5.52999C19.138 5.68627 19.2257 5.89819 19.2257 6.11916C19.2257 6.34013 19.138 6.55205 18.9817 6.70833L15.8334 9.85666V17.5C15.8334 17.721 15.7456 17.933 15.5893 18.0893C15.433 18.2455 15.2211 18.3333 15.0001 18.3333H5.00007C4.77906 18.3333 4.56709 18.2455 4.41081 18.0893C4.25453 17.933 4.16674 17.721 4.16674 17.5V9.85666L1.0184 6.70833C0.862177 6.55205 0.774414 6.34013 0.774414 6.11916C0.774414 5.89819 0.862177 5.68627 1.0184 5.52999L4.5534 1.99416C4.6308 1.91668 4.7227 1.85522 4.82387 1.81328C4.92503 1.77134 5.03347 1.74976 5.14299 1.74976C5.2525 1.74976 5.36094 1.77134 5.4621 1.81328C5.56327 1.85522 5.65517 1.91668 5.73257 1.99416L7.90424 4.16666H12.0959ZM12.7859 5.83333H7.21424L5.1434 3.76249L2.7859 6.11916L5.8334 9.16666V16.6667H14.1667V9.16666L17.2142 6.11916L14.8567 3.76249L12.7859 5.83333Z" fill="#7141F0"/>
</svg>
