<svg width="20" height="20" viewBox="0 0 20 20" fill="none" xmlns="http://www.w3.org/2000/svg">
<path d="M7.49984 2.5C7.49984 3.16304 7.76323 3.79893 8.23207 4.26777C8.70091 4.73661 9.3368 5 9.99984 5C10.6629 5 11.2988 4.73661 11.7676 4.26777C12.2364 3.79893 12.4998 3.16304 12.4998 2.5H17.4998C17.7209 2.5 17.9328 2.5878 18.0891 2.74408C18.2454 2.90036 18.3332 3.11232 18.3332 3.33333V9.16667C18.3332 9.38768 18.2454 9.59964 18.0891 9.75592C17.9328 9.9122 17.7209 10 17.4998 10H15.8323L15.8332 16.6667C15.8332 16.8877 15.7454 17.0996 15.5891 17.2559C15.4328 17.4122 15.2209 17.5 14.9998 17.5H4.99984C4.77882 17.5 4.56686 17.4122 4.41058 17.2559C4.2543 17.0996 4.1665 16.8877 4.1665 16.6667L4.16567 9.99917L2.49984 10C2.27882 10 2.06686 9.9122 1.91058 9.75592C1.7543 9.59964 1.6665 9.38768 1.6665 9.16667V3.33333C1.6665 3.11232 1.7543 2.90036 1.91058 2.74408C2.06686 2.5878 2.27882 2.5 2.49984 2.5H7.49984ZM16.6665 4.16583H13.819L13.8048 4.2C13.4888 4.90654 12.9823 5.51114 12.3421 5.94607C11.7018 6.38099 10.9531 6.62907 10.1798 6.6625L9.99984 6.66667C9.19517 6.66674 8.40769 6.43386 7.73249 5.99614C7.05728 5.55843 6.52324 4.9346 6.19484 4.2L6.17984 4.16667H3.33317V8.33333L5.83234 8.3325V15.8333H14.1665L14.1657 8.33333L16.6665 8.3325V4.16583Z" fill="#7141F0"/>
</svg>
