<svg width="14" height="16" viewBox="0 0 14 16" fill="none" xmlns="http://www.w3.org/2000/svg">
<path d="M10.6177 13.4866C11.0595 13.4866 11.4177 13.1285 11.4177 12.6866C11.4177 12.2448 11.0595 11.8866 10.6177 11.8866L10.6177 13.4866ZM7.30869 6.62109C7.6237 6.31128 7.62793 5.80477 7.31813 5.48975C7.00832 5.17474 6.50181 5.17051 6.18679 5.48032L7.30869 6.62109ZM10.6177 11.8866L2.44314 11.8866L2.44314 13.4866L10.6177 13.4866L10.6177 11.8866ZM2.30291 11.544L7.30869 6.62109L6.18679 5.48032L1.18101 10.4033L2.30291 11.544ZM2.44314 11.8866C2.26416 11.8866 2.17529 11.6696 2.30291 11.544L1.18101 10.4033C0.0324937 11.5328 0.83226 13.4866 2.44314 13.4866L2.44314 11.8866Z" fill="#FFBD00"/>
<path d="M7.96289 12.6866L5.97211 14.6774" stroke="#FFBD00" stroke-width="1.6" stroke-linecap="round"/>
<path d="M4.64502 12.6866L2.65424 14.6774" stroke="#FFBD00" stroke-width="1.6" stroke-linecap="round"/>
<path d="M2.6543 3.39624H11.3829C12.2925 3.39624 12.7297 4.51221 12.0622 5.13012L6.7661 10.0322" stroke="#FFBD00" stroke-width="1.6" stroke-linecap="round"/>
<path d="M8.62695 3.3963L10.6177 1.40552" stroke="#FFBD00" stroke-width="1.6" stroke-linecap="round"/>
<path d="M5.30859 3.3963L7.29938 1.40552" stroke="#FFBD00" stroke-width="1.6" stroke-linecap="round"/>
</svg>
